<svg width="79" height="63" viewBox="0 0 79 63" fill="none" xmlns="http://www.w3.org/2000/svg">
<path d="M72.7969 62.6607C72.193 62.6607 71.5894 62.4728 71.0744 62.097L67.5183 59.5015L63.9623 62.097C62.9343 62.8471 61.5519 62.8487 60.5224 62.1007C59.4928 61.3526 59.067 60.0375 59.4629 58.828L60.8326 54.6438L57.2523 52.0547C56.2063 51.2981 55.7871 50.0155 56.1847 48.7872C56.5823 47.559 57.6734 46.7654 58.9646 46.7654H63.3863L64.7383 42.583C65.1356 41.3542 66.2267 40.5602 67.5183 40.5601C68.81 40.5601 69.9013 41.354 70.2987 42.583L71.6507 46.7654H76.0724C77.3635 46.7654 78.4546 47.559 78.8523 48.7871C79.2499 50.0153 78.8309 51.2977 77.7848 52.0545L74.2044 54.6438L75.5741 58.8279C75.9698 60.0375 75.5442 61.3526 74.5146 62.1007C74.0003 62.4741 73.3986 62.6607 72.7969 62.6607ZM67.5183 56.0483C67.8376 56.0483 68.1571 56.1472 68.428 56.345L72.4832 59.3049L70.9212 54.5335C70.7125 53.8959 70.9397 53.1965 71.4834 52.8032L75.5661 49.8509H70.5276C69.8584 49.8509 69.2655 49.4193 69.0595 48.7825L67.5183 44.0145L65.9772 48.7826C65.7712 49.4193 65.1783 49.8509 64.509 49.8509H59.4709L63.5534 52.8032C64.097 53.1965 64.3242 53.8959 64.1156 54.5335L62.5537 59.3049L66.6088 56.345C66.8796 56.1472 67.199 56.0483 67.5183 56.0483Z" fill="white"/>
<path d="M16.7602 62.6607C16.1563 62.6607 15.5527 62.4728 15.0377 62.097L11.4818 59.5013L7.92572 62.0968C6.89773 62.847 5.51535 62.8485 4.48581 62.1005C3.45628 61.3524 3.03046 60.0373 3.42635 58.8279L4.79608 54.6437L1.21562 52.0547C0.169576 51.2979 -0.249459 50.0153 0.14813 48.7871C0.545719 47.5588 1.63681 46.7654 2.92801 46.7654H7.34978L8.70161 42.5832C9.09905 41.354 10.1903 40.5601 11.482 40.5601H11.4821C12.7736 40.5602 13.8647 41.3542 14.2622 42.5832L15.6141 46.7654H20.0359C21.327 46.7654 22.418 47.5591 22.8158 48.7872C23.2135 50.0153 22.7942 51.2979 21.7481 52.0545L18.1678 54.6438L19.5376 58.8279C19.9333 60.0375 19.5076 61.3526 18.4781 62.1007C17.9637 62.4741 17.362 62.6607 16.7602 62.6607ZM11.4818 56.0483C11.801 56.0483 12.1205 56.1472 12.3915 56.345L16.4467 59.3049L14.8847 54.5335C14.6759 53.8959 14.9032 53.1965 15.4469 52.8032L19.5294 49.8509H14.491C13.8217 49.8509 13.2288 49.4193 13.0228 48.7826L11.4817 44.0145L9.94051 48.7825C9.73454 49.4193 9.14163 49.8509 8.47235 49.8509H3.43406L7.51672 52.8032C8.06026 53.1965 8.28752 53.8959 8.07893 54.5335L6.51696 59.3049L10.5721 56.345C10.8431 56.1472 11.1624 56.0483 11.4818 56.0483Z" fill="white"/>
<path d="M49.7765 62.6684C48.9087 62.6684 48.0412 62.3923 47.2845 61.8401L39.5002 56.1584L31.7158 61.8401C30.205 62.9426 28.2512 62.9447 26.7386 61.8453C25.2255 60.7462 24.624 58.8875 25.2056 57.1104L28.204 47.9513L20.3696 42.2852C18.8559 41.1906 18.2498 39.3349 18.8251 37.5577C19.4004 35.7805 20.979 34.6323 22.8469 34.6323H32.5187L35.4777 25.4785C36.0525 23.7005 37.6313 22.5513 39.5002 22.5513C41.369 22.5513 42.9479 23.7004 43.5226 25.4786L46.4817 34.6323H56.1534C58.0213 34.6323 59.6001 35.7805 60.1753 37.5577C60.7506 39.3349 60.1444 41.1906 58.6307 42.2852L50.7963 47.9513L53.7947 57.1104C54.3765 58.8877 53.7748 60.7462 52.2617 61.8453C51.5064 62.394 50.6414 62.6684 49.7765 62.6684ZM39.5 52.7052C39.8192 52.7052 40.1387 52.8041 40.4097 53.0019L49.1037 59.3476C49.7267 59.8023 50.2901 59.4636 50.448 59.349C50.6058 59.2344 51.102 58.8033 50.8621 58.0703L47.5135 47.8408C47.3048 47.2032 47.532 46.5038 48.0757 46.1107L56.8225 39.7849C57.4469 39.3332 57.2997 38.6934 57.2397 38.5081C57.1797 38.3228 56.924 37.718 56.1534 37.718H45.3589C44.6897 37.718 44.0967 37.2864 43.8908 36.6497L40.5865 26.4276C40.3495 25.694 39.6952 25.6369 39.5002 25.6369C39.3052 25.6369 38.6508 25.694 38.4139 26.4275L35.1096 36.6497C34.9036 37.2864 34.3107 37.718 33.6414 37.718H22.8469C22.0763 37.718 21.8207 38.3228 21.7606 38.5081C21.7006 38.6934 21.5534 39.3333 22.1778 39.7849L30.9246 46.1107C31.4682 46.5038 31.6954 47.2032 31.4868 47.8408L28.1383 58.0703C27.8982 58.8033 28.3944 59.2344 28.5524 59.349C28.71 59.4636 29.2735 59.8023 29.8966 59.3476L38.5907 53.0019C38.8613 52.8041 39.1808 52.7052 39.5 52.7052Z" fill="white"/>
<path d="M39.5 16.1615C38.6481 16.1615 37.9572 15.4706 37.9572 14.6187V8.81701C37.9572 7.96505 38.6481 7.27417 39.5 7.27417C40.352 7.27417 41.0428 7.96505 41.0428 8.81701V14.6187C41.0428 15.4708 40.3521 16.1615 39.5 16.1615Z" fill="white"/>
<path d="M55.237 17.2928C54.842 17.2928 54.4473 17.1421 54.146 16.8409C53.5435 16.2384 53.5435 15.2615 54.146 14.6589L62.3514 6.45345C62.9541 5.85113 63.9307 5.85113 64.5335 6.45345C65.136 7.05593 65.136 8.03285 64.5335 8.63548L56.3281 16.8409C56.0266 17.1422 55.6319 17.2928 55.237 17.2928Z" fill="white"/>
<path d="M23.7631 17.2928C23.3681 17.2928 22.9735 17.1421 22.6722 16.8409L14.4668 8.63548C13.8643 8.03301 13.8643 7.05608 14.4668 6.45345C15.0694 5.85113 16.046 5.85113 16.6488 6.45345L24.8542 14.6589C25.4567 15.2613 25.4567 16.2383 24.8542 16.8409C24.5527 17.1422 24.1581 17.2928 23.7631 17.2928Z" fill="white"/>
<path d="M39.5093 3.41722C39.1035 3.41722 38.7055 3.25213 38.4187 2.96501C38.1317 2.6782 37.9665 2.28015 37.9665 1.87438C37.9665 1.46846 38.1315 1.07056 38.4187 0.783594C38.707 0.496627 39.1035 0.331543 39.5093 0.331543C39.9151 0.331543 40.3131 0.496472 40.6001 0.783594C40.8886 1.07056 41.0535 1.46846 41.0535 1.87438C41.0535 2.28015 40.8886 2.6782 40.6001 2.96501C40.3131 3.25198 39.9166 3.41722 39.5093 3.41722Z" fill="white"/>
</svg>
