<svg width="74" height="74" viewBox="0 0 74 74" fill="none" xmlns="http://www.w3.org/2000/svg">
<g clip-path="url(#clip0)">
<g filter="url(#filter0_d)">
<path fill-rule="evenodd" clip-rule="evenodd" d="M66.5958 14.1846V24.3854C70.8343 25.3828 74 29.1936 74 33.7318V46.9037C74 56.661 66.6237 64.7266 57.1547 65.8205V70.5977C57.1547 71.8124 56.1699 72.7972 54.9553 72.7972C53.7406 72.7972 52.7558 71.8124 52.7558 70.5977V65.9483H21.2444V70.5977C21.2444 71.8124 20.2597 72.7972 19.0449 72.7972C17.8302 72.7972 16.8454 71.8124 16.8454 70.5977V65.8205C7.37644 64.7266 0 56.661 0 46.9037V33.732C0 29.1936 3.16567 25.3828 7.40419 24.3854V14.1846C7.40419 7.0265 13.2278 1.20291 20.3858 1.20291H29.17C30.3848 1.20291 31.3695 2.1877 31.3695 3.40249C31.3695 4.61726 30.3847 5.60201 29.17 5.60201H20.3858C15.6535 5.60201 11.8033 9.45217 11.8033 14.1846V24.3854C16.0418 25.3828 19.2075 29.1936 19.2075 33.732V46.741H54.7924V33.732C54.7924 29.1934 57.958 25.3828 62.1966 24.3854V14.1846C62.1966 9.45217 58.3464 5.60201 53.614 5.60201L44.8357 5.62482C43.6187 5.62798 42.6304 4.64229 42.6304 3.42529C42.6304 2.21274 43.6117 1.2289 44.8243 1.22575L53.6142 1.20291C60.7722 1.20291 66.5958 7.0265 66.5958 14.1846ZM54.9553 61.5493C63.0309 61.5493 69.601 54.9792 69.601 46.9037L69.6008 33.7318C69.6008 30.8622 67.266 28.5273 64.396 28.5273C61.5262 28.5273 59.1913 30.862 59.1913 33.7318V46.9037C59.1913 49.2396 57.291 51.1399 54.9551 51.1399H19.0447C16.7087 51.1399 14.8084 49.2396 14.8084 46.9037V33.7318C14.8084 30.8622 12.4736 28.5273 9.60367 28.5273C6.73386 28.5273 4.39895 30.862 4.39895 33.7318V46.9037C4.39895 54.9792 10.9692 61.5493 19.0449 61.5493H54.9553Z" fill="white"/>
<path d="M37 1.23145C35.8496 1.23145 34.7474 2.24302 34.8006 3.43092C34.8539 4.62258 35.767 5.6304 37 5.6304C38.1505 5.6304 39.2527 4.61883 39.1995 3.43092C39.1462 2.23926 38.2332 1.23145 37 1.23145Z" fill="white"/>
<path d="M30.6949 18.739C29.5444 18.739 28.4422 19.7506 28.4954 20.9385C28.5487 22.1302 29.4619 23.138 30.6949 23.138C31.8453 23.138 32.9475 22.1264 32.8943 20.9385C32.8409 19.7468 31.9279 18.739 30.6949 18.739Z" fill="white"/>
<path d="M30.6949 30.0417C29.5444 30.0417 28.4422 31.0533 28.4954 32.2412C28.5487 33.4329 29.4619 34.4407 30.6949 34.4407C31.8453 34.4407 32.9475 33.4291 32.8943 32.2412C32.8409 31.0496 31.9279 30.0417 30.6949 30.0417Z" fill="white"/>
<path d="M43.3052 18.739C42.1547 18.739 41.0525 19.7506 41.1057 20.9385C41.1591 22.1302 42.0722 23.138 43.3052 23.138C44.4557 23.138 45.5579 22.1264 45.5047 20.9385C45.4514 19.7468 44.5384 18.739 43.3052 18.739Z" fill="white"/>
<path d="M43.3052 30.0417C42.1547 30.0417 41.0525 31.0533 41.1057 32.2412C41.1591 33.4329 42.0722 34.4407 43.3052 34.4407C44.4557 34.4407 45.5579 33.4291 45.5047 32.2412C45.4514 31.0496 44.5384 30.0417 43.3052 30.0417Z" fill="white"/>
</g>
</g>
<defs>
<filter id="filter0_d" x="-4" y="-2.79712" width="82" height="79.5943" filterUnits="userSpaceOnUse" color-interpolation-filters="sRGB">
<feFlood flood-opacity="0" result="BackgroundImageFix"/>
<feColorMatrix in="SourceAlpha" type="matrix" values="0 0 0 0 0 0 0 0 0 0 0 0 0 0 0 0 0 0 127 0"/>
<feOffset/>
<feGaussianBlur stdDeviation="2"/>
<feColorMatrix type="matrix" values="0 0 0 0 1 0 0 0 0 1 0 0 0 0 1 0 0 0 0.3 0"/>
<feBlend mode="normal" in2="BackgroundImageFix" result="effect1_dropShadow"/>
<feBlend mode="normal" in="SourceGraphic" in2="effect1_dropShadow" result="shape"/>
</filter>
<clipPath id="clip0">
<rect width="74" height="74" fill="white"/>
</clipPath>
</defs>
</svg>
