<svg width="51" height="79" viewBox="0 0 51 79" fill="none" xmlns="http://www.w3.org/2000/svg">
<path fill-rule="evenodd" clip-rule="evenodd" d="M30.9402 33.8793L30.7027 34.2337L31.0722 34.447C34.4576 36.4008 36.6733 40.0185 36.6733 44.1319V48.7608C36.6733 49.8183 35.8158 50.6763 34.7578 50.6763H16.2422C15.1842 50.6763 14.3267 49.8183 14.3267 48.7608V44.2856C14.3267 40.3169 16.4341 36.5195 19.9421 34.4637L20.3089 34.2488L20.0711 33.8963C17.1539 29.5724 20.2695 23.7026 25.5 23.7026C30.7272 23.7026 33.8343 29.5608 30.9402 33.8793ZM32.8423 44.1319C32.8423 40.1628 29.6177 36.8718 25.6503 36.792C21.5094 36.7109 18.1576 40.1414 18.1576 44.2856V46.8453H32.8423V44.1319ZM28.2134 30.247C28.2134 28.7507 26.9963 27.5336 25.5 27.5336C24.0037 27.5336 22.7866 28.7507 22.7866 30.247C22.7866 31.7434 24.0038 32.9598 25.5 32.9598C26.9962 32.9598 28.2134 31.7434 28.2134 30.247Z" fill="white"/>
<path d="M9.69781 58.0174C9.69781 56.9594 10.5553 56.102 11.6133 56.102H39.3867C40.4447 56.102 41.3022 56.9594 41.3022 58.0174C41.3022 59.0754 40.4447 59.9329 39.3867 59.9329H11.6133C10.5553 59.9329 9.69781 59.0754 9.69781 58.0174Z" fill="white"/>
<path d="M9.69781 67.2745C9.69781 66.2165 10.5553 65.3591 11.6133 65.3591H32.8423C33.9004 65.3591 34.7578 66.2165 34.7578 67.2745C34.7578 68.332 33.9003 69.19 32.8423 69.19H11.6133C10.5553 69.19 9.69781 68.332 9.69781 67.2745Z" fill="white"/>
<path fill-rule="evenodd" clip-rule="evenodd" d="M32.0444 2.32222V9.81767H42.4727C46.9319 9.81767 50.56 13.4458 50.56 17.9044V70.5142C50.56 74.9728 46.9319 78.601 42.4727 78.601H8.52734C4.06814 78.601 0.440002 74.9728 0.440002 70.5142V17.9044C0.440002 13.4458 4.06814 9.81767 8.52734 9.81767H19.1099V2.31439C19.1099 1.2585 19.9672 0.399018 21.0254 0.398926L30.1305 0.406761C31.1879 0.40726 32.0444 1.26457 32.0444 2.32222ZM28.2134 4.2356L22.9409 4.23134V14.446H28.2134V4.2356ZM19.1099 16.3614V13.6486H8.52734C6.18002 13.6486 4.27093 15.5576 4.27093 17.9044V70.5142C4.27093 72.861 6.18002 74.77 8.52734 74.77H42.4727C44.82 74.77 46.7291 72.861 46.7291 70.5142V17.9044C46.7291 15.557 44.8199 13.6486 42.4727 13.6486H32.0444V16.3614C32.0444 17.4195 31.1869 18.2769 30.1289 18.2769H21.0254C19.9674 18.2769 19.1099 17.4195 19.1099 16.3614Z" fill="white"/>
<path d="M37.4697 67.2745C37.4697 66.2165 38.3271 65.3591 39.3852 65.3591C40.4432 65.3591 41.3006 66.2165 41.3006 67.2745C41.3006 68.332 40.4431 69.19 39.3852 69.19C38.3272 69.19 37.4697 68.332 37.4697 67.2745Z" fill="white"/>
</svg>
