<svg width="80" height="79" viewBox="0 0 80 79" fill="none" xmlns="http://www.w3.org/2000/svg">
<g filter="url(#filter0_d)">
<path fill-rule="evenodd" clip-rule="evenodd" d="M42.7896 1.38379C39.7486 1.38379 37.275 3.82648 37.275 6.82946C37.275 9.32502 38.9834 11.4322 41.3052 12.0738V15.6922C35.6839 16.9624 30.3467 19.7538 25.9771 24.0688C25.0377 24.9965 24.1694 25.9685 23.3724 26.978L23.3628 26.9778L23.3485 26.9777H12.2138C11.2394 26.9777 10.4492 27.7578 10.4492 28.7202C10.4492 29.6826 11.2394 30.4627 12.2138 30.4627H20.9871C19.9418 32.2361 19.0877 34.0897 18.4238 35.9944H1.56252C0.588133 35.9944 -0.202026 36.7745 -0.202026 37.7368C-0.202026 38.6992 0.588133 39.4793 1.56252 39.4793H17.4331C17.028 41.3022 16.7886 43.1539 16.7149 45.0111H10.0001C9.02576 45.0111 8.2356 45.7912 8.2356 46.7536C8.2356 47.716 9.02576 48.4961 10.0001 48.4961H16.7709C16.905 50.3577 17.2061 52.2095 17.6744 54.0279H7.81262C6.83823 54.0279 6.04807 54.808 6.04807 55.7704C6.04807 56.7328 6.83823 57.5129 7.81262 57.5129H18.7932C20.3378 61.4946 22.7323 65.2258 25.9771 68.4301C31.1579 73.5462 38.0196 76.7547 45.2985 77.4648C46.3373 77.5661 47.3769 77.6162 48.4151 77.6162C54.551 77.6162 60.6092 75.8628 65.7503 72.5567C66.5669 72.0315 66.7979 70.9521 66.2661 70.1456C65.7343 69.3392 64.6411 69.1111 63.8245 69.6363C52.7237 76.7746 37.8551 75.2312 28.4725 65.9659C17.4634 55.0944 17.4634 37.4048 28.4725 26.5332C39.4814 15.6619 57.3949 15.6619 68.4042 26.5332C77.7744 35.7864 79.3458 50.4567 72.1411 61.4133C71.6103 62.2204 71.8427 63.2997 72.6599 63.8237C73.4775 64.3478 74.5701 64.1183 75.1008 63.3112C79.0031 57.3764 80.7594 50.2094 80.0468 43.1293C79.3239 35.9489 76.0756 29.18 70.8997 24.0687C66.5176 19.7414 61.1626 16.9461 55.524 15.681V12.0739C57.8459 11.4323 59.5543 9.32516 59.5543 6.82946C59.5543 3.82648 57.0807 1.38379 54.0397 1.38379H42.7896ZM40.8041 6.82961C40.8041 5.7486 41.6949 4.86892 42.7896 4.86892H54.0397C55.1344 4.86892 56.0253 5.7486 56.0253 6.82961C56.0253 7.91063 55.1344 8.79031 54.0397 8.79031H42.7896C41.6949 8.79031 40.8041 7.91048 40.8041 6.82961ZM44.8343 15.097V12.2753H51.9949V15.0918C49.6161 14.8293 47.2127 14.8311 44.8343 15.097Z" fill="white"/>
<path d="M69.6526 65.4547C69.1865 65.4547 68.7338 65.6408 68.4056 65.9648C68.075 66.2896 67.888 66.7389 67.888 67.1972C67.888 67.6553 68.0747 68.1043 68.4052 68.4291C68.7339 68.7554 69.1871 68.9396 69.6526 68.9396C70.117 68.9396 70.57 68.7551 70.9001 68.4291C71.2286 68.1047 71.4171 67.6559 71.4171 67.1972C71.4171 66.7384 71.2288 66.2896 70.9001 65.9652C70.5704 65.6414 70.1173 65.4547 69.6526 65.4547Z" fill="white"/>
<path fill-rule="evenodd" clip-rule="evenodd" d="M60.6749 34.1657C59.9858 33.4853 58.8689 33.4853 58.1795 34.1657L50.5412 41.7084C49.9005 41.4179 49.1883 41.2551 48.4384 41.2551C47.6884 41.2551 46.9764 41.4179 46.3356 41.7084L42.9729 38.3877C42.2837 37.7072 41.1667 37.7073 40.4773 38.3877C39.7883 39.0681 39.7883 40.1715 40.4773 40.8519L43.84 44.1726C43.5457 44.8054 43.381 45.5087 43.381 46.2491C43.381 49.0031 45.6495 51.2433 48.4384 51.2433C51.2274 51.2433 53.4958 49.0031 53.4958 46.2491C53.4958 45.5087 53.331 44.8053 53.0368 44.1726L60.6749 36.63C61.364 35.9495 61.364 34.8462 60.6749 34.1657ZM46.9101 46.2493C46.9101 45.4173 47.5959 44.7401 48.4384 44.7401C49.2809 44.7401 49.9667 45.4173 49.9667 46.2493C49.9667 47.0812 49.2809 47.7585 48.4384 47.7585C47.5959 47.7585 46.9101 47.0812 46.9101 46.2493Z" fill="white"/>
<path d="M63.6971 44.5256C62.7227 44.5256 61.9326 45.3057 61.9326 46.2681C61.9326 47.2305 62.7227 48.0106 63.6971 48.0106H65.1448C66.1191 48.0106 66.9093 47.2305 66.9093 46.2681C66.9093 45.3057 66.1191 44.5256 65.1448 44.5256H63.6971Z" fill="white"/>
<path d="M31.7321 44.4879C30.7577 44.4879 29.9675 45.268 29.9675 46.2304C29.9675 47.1928 30.7577 47.9729 31.7321 47.9729H33.1796C34.1539 47.9729 34.9441 47.1928 34.9441 46.2304C34.9441 45.268 34.1539 44.4879 33.1796 44.4879H31.7321Z" fill="white"/>
<path d="M48.4574 28.0093C47.483 28.0093 46.6929 28.7893 46.6929 29.7517V31.1811C46.6929 32.1435 47.483 32.9236 48.4574 32.9236C49.4318 32.9236 50.2219 32.1435 50.2219 31.1811V29.7517C50.2219 28.7893 49.4318 28.0093 48.4574 28.0093Z" fill="white"/>
<path d="M48.4193 59.5749C47.445 59.5749 46.6548 60.3549 46.6548 61.3173V62.7467C46.6548 63.7091 47.445 64.4892 48.4193 64.4892C49.3937 64.4892 50.1839 63.7091 50.1839 62.7467V61.3173C50.1839 60.3549 49.3937 59.5749 48.4193 59.5749Z" fill="white"/>
<path fill-rule="evenodd" clip-rule="evenodd" d="M48.4384 22.1134C34.9613 22.1134 23.9971 32.9404 23.9971 46.2492C23.9971 59.558 34.9613 70.385 48.4384 70.385C61.9155 70.385 72.8797 59.558 72.8797 46.2492C72.8797 32.9404 61.9155 22.1134 48.4384 22.1134ZM27.5262 46.2492C27.5262 34.8626 36.9074 25.5984 48.4384 25.5984C59.9693 25.5984 69.3506 34.8626 69.3506 46.2492C69.3506 57.6359 59.9693 66.9 48.4384 66.9C36.9074 66.9 27.5262 57.6359 27.5262 46.2492Z" fill="white"/>
<path d="M1.56249 54.0274C1.0979 54.0274 0.643416 54.2135 0.314956 54.5379C-0.013503 54.8622 -0.202026 55.3111 -0.202026 55.7698C-0.202026 56.2302 -0.0136146 56.6775 0.314995 57.0018C0.643572 57.3261 1.09787 57.5123 1.56249 57.5123C2.02706 57.5123 2.48155 57.3262 2.80987 57.0018C3.1383 56.6775 3.32701 56.2287 3.32701 55.7698C3.32701 55.311 3.13849 54.8622 2.80984 54.5379C2.48152 54.2135 2.02704 54.0274 1.56249 54.0274Z" fill="white"/>
</g>
<defs>
<filter id="filter0_d" x="-4.20203" y="-2.61621" width="88.4041" height="84.2325" filterUnits="userSpaceOnUse" color-interpolation-filters="sRGB">
<feFlood flood-opacity="0" result="BackgroundImageFix"/>
<feColorMatrix in="SourceAlpha" type="matrix" values="0 0 0 0 0 0 0 0 0 0 0 0 0 0 0 0 0 0 127 0"/>
<feOffset/>
<feGaussianBlur stdDeviation="2"/>
<feColorMatrix type="matrix" values="0 0 0 0 1 0 0 0 0 1 0 0 0 0 1 0 0 0 0.3 0"/>
<feBlend mode="normal" in2="BackgroundImageFix" result="effect1_dropShadow"/>
<feBlend mode="normal" in="SourceGraphic" in2="effect1_dropShadow" result="shape"/>
</filter>
</defs>
</svg>
