<svg width="25" height="25" viewBox="0 0 25 25" fill="none" xmlns="http://www.w3.org/2000/svg">
<path fill-rule="evenodd" clip-rule="evenodd" d="M7.34656 0.075C8.67951 0.0136363 9.10452 0 12.5 0C15.8954 0 16.3204 0.0147727 17.6522 0.075C18.9841 0.135227 19.8932 0.347727 20.6886 0.655682C21.5216 0.970455 22.2772 1.4625 22.9022 2.09886C23.5386 2.72273 24.0295 3.47727 24.3432 4.31136C24.6522 5.10682 24.8636 6.01591 24.925 7.34545C24.9863 8.68068 25 9.10568 25 12.5C25 15.8955 24.9852 16.3205 24.925 17.6534C24.8647 18.983 24.6522 19.892 24.3432 20.6875C24.0295 21.5217 23.5378 22.2775 22.9022 22.9023C22.2772 23.5386 21.5216 24.0295 20.6886 24.3432C19.8932 24.6523 18.9841 24.8636 17.6545 24.925C16.3204 24.9864 15.8954 25 12.5 25C9.10452 25 8.67951 24.9852 7.34656 24.925C6.01701 24.8648 5.10792 24.6523 4.31247 24.3432C3.47829 24.0295 2.72249 23.5378 2.0977 22.9023C1.46176 22.278 0.969645 21.5226 0.655651 20.6886C0.347697 19.8932 0.136333 18.9841 0.0749695 17.6545C0.0136058 16.3193 -3.05176e-05 15.8943 -3.05176e-05 12.5C-3.05176e-05 9.10455 0.0147422 8.67955 0.0749695 7.34773C0.135197 6.01591 0.347697 5.10682 0.655651 4.31136C0.970109 3.47737 1.4626 2.72195 2.09883 2.09773C2.72274 1.46193 3.47778 0.969822 4.31133 0.655682C5.10679 0.347727 6.01588 0.136364 7.34542 0.075H7.34656ZM17.5511 2.325C16.2329 2.26477 15.8375 2.25227 12.5 2.25227C9.16247 2.25227 8.76701 2.26477 7.44883 2.325C6.22951 2.38068 5.56815 2.58409 5.12724 2.75568C4.54429 2.98295 4.12724 3.25227 3.68974 3.68977C3.27502 4.09324 2.95586 4.58441 2.75565 5.12727C2.58406 5.56818 2.38065 6.22955 2.32497 7.44886C2.26474 8.76705 2.25224 9.1625 2.25224 12.5C2.25224 15.8375 2.26474 16.233 2.32497 17.5511C2.38065 18.7705 2.58406 19.4318 2.75565 19.8727C2.95565 20.4148 3.27497 20.9068 3.68974 21.3102C4.09315 21.725 4.5852 22.0443 5.12724 22.2443C5.56815 22.4159 6.22951 22.6193 7.44883 22.675C8.76701 22.7352 9.16133 22.7477 12.5 22.7477C15.8386 22.7477 16.2329 22.7352 17.5511 22.675C18.7704 22.6193 19.4318 22.4159 19.8727 22.2443C20.4557 22.017 20.8727 21.7477 21.3102 21.3102C21.725 20.9068 22.0443 20.4148 22.2443 19.8727C22.4159 19.4318 22.6193 18.7705 22.675 17.5511C22.7352 16.233 22.7477 15.8375 22.7477 12.5C22.7477 9.1625 22.7352 8.76705 22.675 7.44886C22.6193 6.22955 22.4159 5.56818 22.2443 5.12727C22.017 4.54432 21.7477 4.12727 21.3102 3.68977C20.9067 3.27508 20.4155 2.95592 19.8727 2.75568C19.4318 2.58409 18.7704 2.38068 17.5511 2.325ZM10.9034 16.3534C11.795 16.7246 12.7879 16.7747 13.7124 16.4951C14.6369 16.2156 15.4356 15.6238 15.9723 14.8207C16.5089 14.0177 16.75 13.0533 16.6546 12.0922C16.5591 11.1311 16.1329 10.2329 15.4488 9.55114C15.0127 9.11531 14.4854 8.7816 13.9049 8.57403C13.3243 8.36646 12.705 8.29018 12.0914 8.3507C11.4779 8.41122 10.8854 8.60702 10.3566 8.92401C9.82776 9.241 9.37581 9.6713 9.03327 10.1839C8.69072 10.6965 8.46609 11.2787 8.37556 11.8886C8.28502 12.4984 8.33082 13.1208 8.50967 13.7108C8.68852 14.3008 8.99597 14.8439 9.40988 15.3008C9.82379 15.7578 10.3339 16.1173 10.9034 16.3534ZM7.95679 7.95682C8.55341 7.3602 9.2617 6.88694 10.0412 6.56405C10.8207 6.24116 11.6562 6.07497 12.5 6.07497C13.3437 6.07497 14.1792 6.24116 14.9587 6.56405C15.7382 6.88693 16.4465 7.3602 17.0432 7.95682C17.6398 8.55344 18.113 9.26173 18.4359 10.0412C18.7588 10.8208 18.925 11.6563 18.925 12.5C18.925 13.3437 18.7588 14.1792 18.4359 14.9588C18.113 15.7383 17.6398 16.4466 17.0432 17.0432C15.8382 18.2481 14.204 18.925 12.5 18.925C10.7959 18.925 9.16171 18.2481 7.95679 17.0432C6.75186 15.8383 6.07494 14.204 6.07494 12.5C6.07494 10.796 6.75186 9.16175 7.95679 7.95682ZM20.35 7.03182C20.4978 6.89235 20.6162 6.72464 20.698 6.53861C20.7799 6.35258 20.8236 6.15201 20.8266 5.94878C20.8295 5.74556 20.7917 5.5438 20.7153 5.35547C20.6389 5.16713 20.5255 4.99603 20.3817 4.85232C20.238 4.7086 20.0669 4.59518 19.8786 4.51877C19.6903 4.44236 19.4885 4.40452 19.2853 4.40748C19.0821 4.41044 18.8815 4.45415 18.6955 4.53602C18.5094 4.61789 18.3417 4.73624 18.2022 4.88409C17.931 5.17162 17.7825 5.55355 17.7883 5.94878C17.794 6.34402 17.9536 6.72145 18.2331 7.00096C18.5126 7.28046 18.89 7.44003 19.2853 7.44579C19.6805 7.45156 20.0624 7.30306 20.35 7.03182Z" fill="white"/>
</svg>
