<svg width="25" height="25" viewBox="0 0 25 25" fill="none" xmlns="http://www.w3.org/2000/svg">
<path d="M11.875 0C9.86772 0.0291667 5.55522 0.358333 3.14585 2.56979C1.35627 4.36146 0.725016 6.97917 0.659391 10.226C0.593766 13.4719 0.508349 19.5583 6.37502 21.2083H6.37814L6.37397 23.725C6.37397 23.725 6.33543 24.7427 7.00939 24.951C7.81877 25.2031 8.29481 24.4302 9.07189 23.5948C9.49585 23.1365 10.0844 22.4656 10.5271 21.949C14.5375 22.2885 17.6229 21.5156 17.975 21.4021C18.7833 21.1396 23.3667 20.5521 24.1125 14.4677C24.8834 8.19687 23.7375 4.22812 21.675 2.44062C21.0542 1.86771 18.5438 0.0447917 12.9511 0.0208333C12.9511 0.0208333 12.5396 -0.00520833 11.8708 0.003125L11.875 0ZM11.9354 1.76354C12.5031 1.75937 12.8521 1.78125 12.8521 1.78125C17.5833 1.80208 19.849 3.22708 20.375 3.70417C22.1198 5.19896 23.0104 8.775 22.3604 14.0135V14.0156C21.7313 19.0969 18.0125 19.4156 17.3271 19.6354C17.0354 19.7292 14.325 20.4031 10.9177 20.1812C10.9177 20.1812 8.38022 23.2437 7.58752 24.0396C7.46252 24.1646 7.31668 24.2135 7.22085 24.1896C7.08543 24.1552 7.04793 23.9937 7.04897 23.7583L7.06981 19.5729C2.10939 18.1979 2.39793 13.0188 2.45522 10.3073C2.51147 7.59479 3.02085 5.37187 4.53439 3.87708C6.57606 2.03021 10.2365 1.775 11.9406 1.7625L11.9354 1.76354ZM12.3313 4.47396C12.2505 4.47803 12.1744 4.51285 12.1184 4.57126C12.0625 4.62968 12.0311 4.70727 12.0306 4.78814C12.03 4.869 12.0604 4.947 12.1156 5.00615C12.1707 5.0653 12.2464 5.10111 12.3271 5.10625C14.0188 5.11667 15.3958 5.66562 16.5229 6.76458C17.6406 7.85417 18.2104 9.33542 18.224 11.2792C18.2261 11.4531 18.3698 11.5917 18.5438 11.5917C18.627 11.5906 18.7065 11.5567 18.765 11.4975C18.8235 11.4382 18.8563 11.3583 18.8563 11.275C18.8417 9.20833 18.2125 7.52917 16.9646 6.3125C15.725 5.10417 14.1604 4.48646 12.3323 4.47396H12.3313ZM8.20627 5.19792C7.9848 5.16725 7.7594 5.21007 7.5646 5.31979L7.55418 5.32188C7.10627 5.57917 6.70418 5.90729 6.36043 6.29271C6.35835 6.29687 6.35418 6.29687 6.3521 6.30104C6.07397 6.6375 5.9146 6.96562 5.87293 7.28854C5.86477 7.3367 5.86233 7.38565 5.86564 7.43437C5.86564 7.57604 5.88856 7.71562 5.93335 7.85104L5.94689 7.86146C6.08752 8.36146 6.4396 9.19063 7.2021 10.574C7.6396 11.374 8.14272 12.1365 8.70835 12.851C8.9896 13.2094 9.29168 13.5521 9.6146 13.876L9.7521 14.0135C10.075 14.3344 10.4188 14.6385 10.7771 14.9198C11.4923 15.4855 12.254 15.9898 13.0542 16.4271C14.4375 17.1906 15.2688 17.5417 15.7667 17.6833L15.7771 17.6979C15.9583 17.7572 16.1502 17.7767 16.3396 17.7552C16.6625 17.7177 16.9927 17.5573 17.3271 17.276C17.3313 17.276 17.3302 17.274 17.3354 17.2708C17.7208 16.9271 18.0469 16.5208 18.3042 16.075L18.3073 16.0646C18.5417 15.6146 18.4636 15.1875 18.1198 14.8979C18.1156 14.8979 17.3927 14.2937 17.0396 14.0333C16.6646 13.7677 16.2792 13.5208 15.8802 13.2937C15.349 12.9969 14.8052 13.1833 14.5802 13.475L14.1146 14.0625C13.875 14.3573 13.4302 14.3187 13.4302 14.3187C10.1802 13.4896 9.31043 10.199 9.31043 10.199C9.31043 10.199 9.27189 9.75521 9.56876 9.51562L10.1552 9.04896C10.4438 8.825 10.6302 8.28125 10.3323 7.74896C10.1061 7.34926 9.8592 6.96158 9.59272 6.5875C9.31298 6.22143 9.0247 5.86196 8.72814 5.50937C8.59751 5.3458 8.41149 5.23574 8.20522 5.2L8.20627 5.19792ZM12.8833 6.11458C12.7996 6.1121 12.7184 6.14297 12.6574 6.2004C12.5965 6.25783 12.5608 6.33712 12.5583 6.42083C12.5559 6.50454 12.5867 6.58581 12.6442 6.64676C12.7016 6.70771 12.7809 6.74335 12.8646 6.74583C14.0729 6.83437 14.9656 7.23125 15.6198 7.94375C16.2761 8.66042 16.5886 9.53125 16.5636 10.6208C16.5681 10.7009 16.6027 10.7764 16.6604 10.8321C16.7182 10.8878 16.7948 10.9197 16.875 10.9214C16.9552 10.9232 17.0331 10.8945 17.0932 10.8413C17.1532 10.7881 17.191 10.7142 17.199 10.6344C17.225 9.41042 16.8511 8.35 16.0875 7.51562C15.3167 6.67188 14.2365 6.21042 12.9104 6.11354H12.8854L12.8833 6.11458ZM13.3656 7.8125C13.2854 7.81368 13.2086 7.84515 13.1507 7.9006C13.0927 7.95605 13.0579 8.03138 13.0531 8.11146C13.0448 8.28542 13.1781 8.43437 13.3531 8.44479C13.8979 8.47396 14.2646 8.62708 14.5125 8.88437C14.7625 9.13958 14.9167 9.53021 14.9458 10.0969C14.9566 10.1754 14.9964 10.2471 15.0574 10.2977C15.1184 10.3483 15.1961 10.3742 15.2753 10.3703C15.3545 10.3664 15.4293 10.3329 15.485 10.2765C15.5406 10.2201 15.5732 10.1448 15.5761 10.0656C15.5448 9.39479 15.3521 8.83854 14.9719 8.44375C14.5896 8.05 14.0417 7.84583 13.3886 7.81146H13.3698L13.3656 7.8125Z" fill="white"/>
</svg>
